<svg width="232" height="400" viewBox="0 0 232 400" fill="none" xmlns="http://www.w3.org/2000/svg">
<g clip-path="url(#clip0_6_11)">
<path d="M189.482 37.6307H179.36V177.003H189.482V37.6307Z" fill="#825A2C" stroke="black" stroke-width="7.24638"/>
<path d="M193.101 182.605L181.188 188.551C178.264 189.892 174.801 188.672 173.368 185.795C171.935 182.918 173.051 179.425 175.887 177.907L187.8 171.96C189.714 170.936 192.035 171.032 193.857 172.212C195.679 173.392 196.713 175.469 196.556 177.631C196.399 179.794 195.075 181.7 193.101 182.605Z" fill="#A0522D" stroke="black" stroke-width="7.24638"/>
<path d="M193.101 209.244L181.188 215.19C178.264 216.531 174.801 215.31 173.368 212.434C171.935 209.557 173.051 206.064 175.887 204.546L187.8 198.599C189.714 197.575 192.035 197.671 193.857 198.851C195.679 200.031 196.713 202.108 196.556 204.27C196.399 206.433 195.075 208.338 193.101 209.244Z" fill="#A0522D" stroke="black" stroke-width="7.24638"/>
<path d="M193.101 195.895L181.188 201.842C179.274 202.867 176.953 202.77 175.131 201.59C173.309 200.41 172.275 198.333 172.432 196.171C172.589 194.008 173.913 192.102 175.887 191.197L187.8 185.251C189.714 184.226 192.035 184.323 193.857 185.503C195.679 186.683 196.713 188.759 196.556 190.922C196.399 193.084 195.075 194.99 193.101 195.895Z" fill="#825A2C" stroke="black" stroke-width="7.24638"/>
<path d="M211.606 298.189C211.713 299.976 211.418 301.763 210.742 303.422C210.447 304.233 210.047 305.003 209.551 305.711C208.888 306.695 208.062 307.56 207.109 308.268C201.642 311.872 195.28 313.889 188.733 314.096C186.648 314.274 184.414 314.363 181.942 314.363C179.47 314.363 177.236 314.274 175.152 314.096C168.604 313.889 162.242 311.872 156.775 308.268C155.822 307.56 154.996 306.695 154.333 305.711C153.838 305.003 153.437 304.233 153.142 303.422C152.466 301.763 152.171 299.976 152.278 298.189C152.537 291.584 153.761 285.053 155.912 278.803C164.414 280.954 173.175 281.915 181.942 281.657C190.71 281.915 199.47 280.954 207.973 278.803C210.124 285.053 211.348 291.584 211.606 298.189Z" fill="#E91E63"/>
<path d="M207.973 278.803C205.223 279.585 202.421 280.173 199.589 280.563C201.38 286.279 202.417 292.205 202.671 298.189C202.778 299.976 202.483 301.763 201.807 303.422C201.513 304.233 201.112 305.003 200.616 305.711C199.953 306.695 199.127 307.56 198.174 308.268C192.707 311.872 186.345 313.889 179.798 314.096C179.053 314.158 178.261 314.197 177.475 314.238C178.889 314.313 180.355 314.363 181.942 314.363C184.414 314.363 186.648 314.274 188.733 314.096C195.28 313.889 201.642 311.872 207.109 308.268C208.062 307.56 208.888 306.695 209.551 305.711C210.047 305.003 210.447 304.233 210.742 303.422C211.418 301.763 211.713 299.976 211.606 298.189C211.348 291.584 210.124 285.053 207.973 278.803Z" fill="#AD1457"/>
<path d="M211.606 298.189C211.713 299.976 211.418 301.763 210.742 303.422C210.447 304.233 210.047 305.003 209.551 305.711C208.888 306.695 208.062 307.56 207.109 308.268C201.642 311.872 195.28 313.889 188.733 314.096C186.648 314.274 184.414 314.363 181.942 314.363C179.47 314.363 177.236 314.274 175.152 314.096C168.604 313.889 162.242 311.872 156.775 308.268C155.822 307.56 154.996 306.695 154.333 305.711C153.838 305.003 153.437 304.233 153.142 303.422C152.466 301.763 152.171 299.976 152.278 298.189C152.537 291.584 153.761 285.053 155.912 278.803C164.414 280.954 173.175 281.915 181.942 281.657C190.71 281.915 199.47 280.954 207.973 278.803C210.124 285.053 211.348 291.584 211.606 298.189Z" stroke="black" stroke-width="7.24638"/>
<path d="M184.92 296.524H178.964C177.319 296.524 175.985 297.855 175.985 299.497C175.985 301.139 177.319 302.47 178.964 302.47H184.92C186.565 302.47 187.899 301.139 187.899 299.497C187.899 297.855 186.565 296.524 184.92 296.524Z" fill="black"/>
<path d="M152.278 298.189C152.171 299.976 152.466 301.763 153.142 303.422C144.266 308.774 139.71 306.365 137.327 302.678C134.899 298.591 134.809 293.529 137.089 289.358C139.654 283.977 143.388 279.234 148.019 275.473C150.497 276.914 153.149 278.033 155.912 278.803C153.761 285.054 152.537 291.585 152.278 298.189Z" fill="#9D27B0" stroke="black" stroke-width="7.24638"/>
<path d="M226.557 302.678C224.175 306.365 219.618 308.774 210.742 303.422C211.418 301.763 211.713 299.976 211.606 298.189C211.348 291.585 210.124 285.054 207.973 278.803C210.735 278.033 213.387 276.914 215.865 275.473C220.496 279.234 224.23 283.977 226.796 289.358C229.076 293.529 228.985 298.591 226.557 302.678Z" fill="#9D27B0"/>
<path d="M226.796 289.358C224.23 283.977 220.496 279.234 215.865 275.473C213.991 276.573 212.008 277.476 209.947 278.167C213.18 281.44 215.853 285.221 217.861 289.358C220.141 293.529 220.05 298.591 217.623 302.678C216.918 303.809 215.964 304.763 214.832 305.467C221.071 307.914 224.574 305.75 226.558 302.678C228.985 298.591 229.076 293.529 226.796 289.358Z" fill="#6A1B9A"/>
<path d="M226.557 302.678C224.175 306.365 219.618 308.774 210.742 303.422C211.418 301.763 211.713 299.976 211.606 298.189C211.348 291.585 210.124 285.054 207.973 278.803C210.735 278.033 213.387 276.914 215.865 275.473C220.496 279.234 224.23 283.977 226.796 289.358C229.076 293.529 228.985 298.591 226.557 302.678Z" stroke="black" stroke-width="7.24638"/>
<path d="M175.152 314.096C174.824 326.613 172.59 334.195 170.356 338.655C168.78 341.948 165.464 344.059 161.809 344.096C161.521 344.101 161.232 344.091 160.945 344.067C156.214 343.454 152.602 339.547 152.368 334.79C151.963 325.054 152.622 315.304 154.333 305.711C154.996 306.695 155.822 307.56 156.775 308.268C162.242 311.872 168.604 313.889 175.152 314.096Z" fill="#3F51B5" stroke="black" stroke-width="7.24638"/>
<path d="M211.517 334.79C211.283 339.547 207.67 343.454 202.939 344.067C202.652 344.091 202.364 344.101 202.076 344.096C198.42 344.059 195.104 341.948 193.528 338.655C191.294 334.195 189.061 326.613 188.733 314.096C195.28 313.889 201.642 311.872 207.109 308.268C208.062 307.56 208.888 306.695 209.551 305.711C211.262 315.304 211.921 325.054 211.517 334.79Z" fill="#3F51B5"/>
<path d="M209.551 305.711C208.888 306.695 208.062 307.56 207.109 308.268C205.365 309.529 203.463 310.555 201.45 311.319C202.603 319.086 202.982 326.948 202.582 334.79C202.364 338.16 200.483 341.202 197.563 342.907C198.941 343.682 200.494 344.091 202.076 344.096C202.364 344.101 202.652 344.091 202.939 344.067C207.67 343.454 211.283 339.547 211.517 334.79C211.921 325.054 211.262 315.304 209.551 305.711Z" fill="#283593"/>
<path d="M211.517 334.79C211.283 339.547 207.67 343.454 202.939 344.067C202.652 344.091 202.364 344.101 202.076 344.096C198.42 344.059 195.104 341.948 193.528 338.655C191.294 334.195 189.061 326.613 188.733 314.096C195.28 313.889 201.642 311.872 207.109 308.268C208.062 307.56 208.888 306.695 209.551 305.711C211.262 315.304 211.921 325.054 211.517 334.79Z" stroke="black" stroke-width="7.24638"/>
<path d="M226.617 245.978C226.617 258.228 226.617 269.051 215.865 275.473C213.387 276.914 210.735 278.033 207.973 278.803C199.47 280.954 190.71 281.915 181.942 281.657C173.175 281.915 164.414 280.954 155.912 278.803C153.149 278.033 150.497 276.914 148.019 275.473C137.267 269.051 137.267 258.228 137.267 245.978C137.267 229.506 151.236 215.65 170.208 211.547C174.064 210.719 177.998 210.301 181.942 210.298C184.042 210.296 186.14 210.415 188.226 210.655C209.909 213.093 226.617 227.96 226.617 245.978Z" fill="#FFE0B2"/>
<path d="M188.226 210.655C186.14 210.415 184.042 210.296 181.942 210.298C180.528 210.298 179.151 210.42 177.772 210.524C178.279 210.569 178.791 210.595 179.295 210.655C200.974 213.093 217.682 227.96 217.682 245.978C217.682 258.228 217.682 269.051 206.93 275.473C204.452 276.914 201.8 278.033 199.038 278.803C191.997 280.642 184.752 281.581 177.475 281.598C178.916 281.633 180.396 281.657 181.942 281.657C190.71 281.915 199.47 280.954 207.973 278.803C210.735 278.033 213.387 276.914 215.865 275.473C226.617 269.051 226.617 258.228 226.617 245.978C226.617 227.96 209.909 213.093 188.226 210.655Z" fill="#DFC49C"/>
<path d="M226.617 245.978C226.617 258.228 226.617 269.051 215.865 275.473C213.387 276.914 210.735 278.033 207.973 278.803C199.47 280.954 190.71 281.915 181.942 281.657C173.175 281.915 164.414 280.954 155.912 278.803C153.149 278.033 150.497 276.914 148.019 275.473C137.267 269.051 137.267 258.228 137.267 245.978C137.267 229.506 151.236 215.65 170.208 211.547C174.064 210.719 177.998 210.301 181.942 210.298C184.042 210.296 186.14 210.415 188.226 210.655C209.909 213.093 226.617 227.96 226.617 245.978Z" stroke="black" stroke-width="7.24638"/>
<path d="M162.583 266.791C166.695 266.791 170.029 263.463 170.029 259.358C170.029 255.252 166.695 251.924 162.583 251.924C158.471 251.924 155.137 255.252 155.137 259.358C155.137 263.463 158.471 266.791 162.583 266.791Z" fill="#3F51B5"/>
<path d="M201.301 266.791C205.414 266.791 208.747 263.463 208.747 259.358C208.747 255.252 205.414 251.924 201.301 251.924C197.189 251.924 193.855 255.252 193.855 259.358C193.855 263.463 197.189 266.791 201.301 266.791Z" fill="#3F51B5"/>
<path d="M152.159 266.791C152.159 268.433 153.492 269.764 155.137 269.764H170.029C171.674 269.764 173.007 268.433 173.007 266.791C172.995 265.809 172.489 264.9 171.661 264.37C172.532 262.842 172.995 261.116 173.007 259.358C173.007 253.61 168.34 248.951 162.583 248.951C156.826 248.951 152.159 253.61 152.159 259.358C152.171 261.116 152.635 262.842 153.505 264.37C152.677 264.9 152.171 265.809 152.159 266.791ZM162.583 254.898C165.051 254.898 167.051 256.894 167.051 259.358C167.051 261.821 165.051 263.817 162.583 263.817C160.116 263.817 158.116 261.821 158.116 259.358C158.116 256.894 160.116 254.898 162.583 254.898Z" fill="black"/>
<path d="M190.877 266.791C190.877 268.433 192.211 269.764 193.856 269.764H208.747C210.392 269.764 211.726 268.433 211.726 266.791C211.713 265.809 211.207 264.9 210.379 264.37C211.25 262.842 211.713 261.116 211.726 259.358C211.726 253.61 207.059 248.951 201.301 248.951C195.544 248.951 190.877 253.61 190.877 259.358C190.89 261.116 191.353 262.842 192.223 264.37C191.395 264.9 190.889 265.809 190.877 266.791ZM201.301 254.898C203.769 254.898 205.769 256.894 205.769 259.358C205.769 261.821 203.769 263.817 201.301 263.817C198.834 263.817 196.834 261.821 196.834 259.358C196.834 256.894 198.834 254.898 201.301 254.898Z" fill="black"/>
<path d="M119.057 37.4697L29.7127 120.789L17.8 108.058L107.145 24.7387L119.057 37.4697Z" fill="#C4C4C4" stroke="black" stroke-width="7.24638"/>
<path fill-rule="evenodd" clip-rule="evenodd" d="M219.185 8.01393C219.185 5.12741 216.841 2.78745 213.95 2.78745H8.02746C5.13607 2.78745 2.79214 5.12741 2.79214 8.01393V37.6307L2.79211 391.986C2.79211 394.871 5.13604 397.213 8.02743 397.213H32.4589C35.3502 397.213 37.6942 394.871 37.6942 391.986V42.8571C37.6942 39.9707 40.0382 37.6307 42.9295 37.6307H213.95C216.841 37.6307 219.185 35.2906 219.185 32.4042V8.01393Z" fill="#56412A"/>
<path d="M2.79212 37.6307H5.40979H2.79212ZM37.6942 391.986H35.0765H37.6942ZM8.02745 5.40069H213.95V0.17421H8.02745V5.40069ZM5.40979 37.6307V8.01393H0.174459V37.6307H5.40979ZM5.40975 391.986L5.40979 37.6307H0.174459L0.174438 391.986H5.40975ZM32.4589 394.599H8.02741V399.826H32.4589V394.599ZM35.0765 42.8571V391.986H40.3119V42.8571H35.0765ZM213.95 35.0174H42.9295V40.2439H213.95V35.0174ZM216.567 8.01393V32.4042H221.803V8.01393H216.567ZM213.95 40.2439C218.287 40.2439 221.803 36.7338 221.803 32.4042H216.567C216.567 33.8474 215.395 35.0174 213.95 35.0174V40.2439ZM32.4589 399.826C36.7958 399.826 40.3119 396.317 40.3119 391.986H35.0765C35.0765 393.429 33.9046 394.599 32.4589 394.599V399.826ZM0.174438 391.986C0.174438 396.317 3.69034 399.826 8.02741 399.826V394.599C6.58173 394.599 5.40975 393.429 5.40975 391.986H0.174438ZM213.95 5.40069C215.395 5.40069 216.567 6.57069 216.567 8.01393H221.803C221.803 3.68417 218.287 0.17421 213.95 0.17421V5.40069ZM40.3119 42.8571C40.3119 41.4139 41.4839 40.2439 42.9295 40.2439V35.0174C38.5926 35.0174 35.0765 38.5275 35.0765 42.8571H40.3119ZM8.02745 0.17421C3.69037 0.17421 0.174459 3.68417 0.174459 8.01393H5.40979C5.40979 6.57069 6.58173 5.40069 8.02745 5.40069V0.17421Z" fill="black"/>
</g>
<defs>
<clipPath id="clip0_6_11">
<rect width="231.401" height="400" fill="white"/>
</clipPath>
</defs>
</svg>
