<svg width="45" height="45" viewBox="0 0 45 45" fill="none" xmlns="http://www.w3.org/2000/svg">
<path d="M42.1875 16.5234C42.1875 28.8281 23.9432 38.7879 23.1662 39.1992C22.9614 39.3094 22.7325 39.367 22.5 39.367C22.2675 39.367 22.0386 39.3094 21.8338 39.1992C21.0568 38.7879 2.8125 28.8281 2.8125 16.5234C2.81576 13.634 3.96503 10.8638 6.00818 8.82068C8.05132 6.77753 10.8215 5.62826 13.7109 5.625C17.3408 5.625 20.5189 7.18594 22.5 9.82441C24.4811 7.18594 27.6592 5.625 31.2891 5.625C34.1785 5.62826 36.9487 6.77753 38.9918 8.82068C41.035 10.8638 42.1842 13.634 42.1875 16.5234Z" fill="#DB6F6F"/>
</svg>
